<?xml version="1.0" standalone="no"?>
<!DOCTYPE svg PUBLIC "-//W3C//DTD SVG 20010904//EN"
 "http://www.w3.org/TR/2001/REC-SVG-20010904/DTD/svg10.dtd">
<svg version="1.0" xmlns="http://www.w3.org/2000/svg"
 width="500.000000pt" height="500.000000pt" viewBox="0 0 500.000000 500.000000"
 preserveAspectRatio="xMidYMid meet">
<metadata>
Created by potrace 1.14, written by Peter Selinger 2001-2017
</metadata>
<g transform="translate(0.000000,500.000000) scale(0.100000,-0.100000)"
fill="#000000" stroke="none">
<path d="M3905 3687 c-16 -6 -50 -19 -75 -30 -25 -11 -72 -21 -105 -24 -33 -2
-76 -9 -95 -15 -42 -14 -38 -13 -119 -27 -84 -14 -156 -49 -222 -110 -35 -32
-78 -58 -123 -76 -38 -15 -81 -38 -95 -51 -29 -27 -31 -28 -113 -44 -65 -13
-72 -19 -87 -77 -15 -55 -139 -208 -177 -217 -35 -9 -49 5 -34 34 11 20 10 21
-9 15 -25 -8 -29 16 -6 35 8 7 15 17 15 23 0 7 -4 7 -12 -1 -20 -20 -40 -15
-33 8 8 25 -3 26 -29 1 -12 -11 -30 -21 -41 -23 -17 -3 -20 2 -18 32 l3 35
-27 -44 c-24 -40 -28 -42 -40 -25 -12 17 -13 17 -14 -2 -1 -36 -7 -56 -23 -73
-21 -23 -21 -37 0 -17 23 24 58 21 51 -4 -3 -10 0 -18 5 -17 6 1 12 -3 14 -9
3 -6 -14 -11 -42 -13 -26 -1 -43 2 -40 7 3 5 -5 10 -17 10 -25 0 -118 52 -159
90 -22 20 -25 29 -17 44 23 42 8 66 -66 108 -48 27 -75 33 -81 17 -5 -13 -48
-15 -79 -3 -11 4 -45 17 -75 28 -30 11 -91 38 -135 59 -44 21 -97 41 -118 45
-46 7 -155 80 -218 146 -44 46 -67 57 -83 41 -4 -5 -26 -9 -49 -10 -61 -4 -91
-8 -105 -17 -6 -4 -29 3 -52 14 -36 19 -43 19 -68 6 -31 -16 -148 -31 -225
-29 -26 1 -47 -2 -47 -8 0 -5 8 -9 18 -9 26 -1 50 -23 71 -66 18 -36 19 -36
19 -10 0 15 4 32 10 38 14 14 49 -7 67 -41 8 -16 25 -38 39 -48 13 -10 27 -34
32 -53 4 -19 9 -38 10 -42 1 -5 2 -16 3 -25 3 -38 24 8 26 55 1 35 8 55 23 70
12 12 22 25 22 30 0 11 40 34 66 37 28 3 49 -18 69 -71 l15 -39 -4 42 c-5 55
9 64 31 19 19 -41 38 -49 23 -11 -20 51 30 11 77 -62 24 -37 24 -37 18 -8 -6
26 -5 28 8 15 26 -27 63 -104 66 -140 2 -25 14 -45 43 -73 21 -20 44 -51 50
-68 13 -39 28 -20 19 25 -8 36 -5 135 4 144 14 14 41 -19 57 -69 20 -65 26
-53 13 29 -7 47 4 54 28 20 13 -19 16 -20 16 -6 2 62 91 3 157 -104 34 -56 49
-63 28 -13 -24 59 -19 72 19 42 20 -15 31 -32 29 -44 -1 -11 4 -32 12 -48 l15
-29 10 25 c11 27 12 24 16 -48 2 -28 10 -62 19 -74 14 -21 15 -17 10 64 -4 53
-2 87 3 87 6 0 33 -27 62 -60 29 -33 60 -60 69 -59 11 0 12 3 5 6 -13 4 -19
33 -8 33 15 0 54 -33 49 -41 -3 -5 2 -9 10 -9 9 0 16 -4 16 -10 0 -5 -19 -10
-42 -10 -40 0 -41 -1 -24 -19 15 -16 15 -22 5 -39 -10 -17 -10 -23 0 -36 8 -9
9 -16 3 -16 -16 0 -72 -59 -72 -76 0 -8 7 -14 15 -14 19 0 19 -26 0 -34 -8 -3
-15 -10 -15 -16 0 -6 4 -9 9 -5 5 3 12 1 16 -5 3 -5 -3 -15 -15 -22 -24 -16
-25 -26 -3 -50 9 -10 12 -18 6 -18 -12 0 -63 -49 -63 -61 0 -5 7 -6 15 -3 13
5 13 0 0 -42 -18 -58 -18 -67 -5 -59 14 9 12 -10 -5 -52 -17 -41 -19 -57 -5
-48 6 3 10 -1 10 -9 0 -8 -4 -18 -10 -21 -11 -7 -14 -28 -2 -22 7 4 43 -29 37
-35 -4 -4 -17 -111 -19 -168 -2 -40 2 -50 42 -97 l45 -52 28 35 c31 39 44 41
43 7 0 -13 4 -23 8 -23 4 0 8 -11 8 -24 0 -13 4 -26 9 -28 6 -1 11 -23 12 -48
2 -25 9 -61 17 -80 8 -19 16 -51 18 -70 14 -211 20 -270 30 -279 2 -2 1 20 -2
51 -6 52 -4 56 22 77 30 24 58 24 60 1 1 -28 17 -80 25 -85 4 -3 3 9 -3 27 -5
18 -11 69 -12 113 -2 53 -8 89 -18 105 -22 34 -32 104 -37 255 -1 11 -1 31 -1
45 0 14 -2 36 -5 50 -10 41 -13 80 -6 80 4 0 6 28 4 63 -2 74 3 98 21 91 9 -3
13 3 13 18 1 42 3 47 18 42 9 -4 15 0 15 9 0 14 20 27 40 27 12 0 52 -108 57
-155 2 -22 6 -51 8 -65 2 -14 4 -38 4 -53 1 -19 5 -27 14 -24 6 2 11 9 10 14
-1 6 -5 32 -8 59 -6 45 -6 48 10 33 22 -22 29 -72 15 -115 -8 -25 -9 -39 -1
-48 7 -9 7 -18 -3 -32 -7 -10 -19 -40 -26 -66 -7 -27 -18 -48 -25 -48 -8 0
-12 -17 -12 -48 0 -27 -5 -57 -10 -68 -6 -10 -10 -55 -9 -99 2 -44 -2 -105 -8
-135 -6 -30 -9 -68 -6 -85 4 -26 10 -30 37 -31 41 -1 52 24 58 131 8 164 33
290 63 315 23 20 42 59 44 93 1 15 8 27 15 27 7 0 13 9 13 21 0 11 4 18 10 14
6 -4 6 -15 0 -30 -14 -38 -2 -80 23 -83 85 -8 116 26 112 123 -1 33 2 63 8 67
12 7 14 59 5 100 -4 15 -2 30 3 34 6 3 8 27 3 60 -5 46 -4 54 10 54 9 0 16 -5
16 -11 0 -5 4 -8 10 -4 5 3 -1 26 -15 53 -13 25 -20 49 -16 52 14 10 9 49 -10
86 -13 27 -16 40 -7 45 8 5 5 18 -10 43 -12 20 -17 36 -13 36 5 0 4 14 -2 30
-6 17 -17 30 -24 30 -7 0 -13 7 -13 16 0 9 5 12 12 8 8 -5 9 -2 4 12 -4 10 -9
26 -11 36 -2 9 -11 30 -20 47 -13 27 -14 32 -1 37 27 10 28 62 1 102 -31 45
-31 69 -2 104 12 14 31 38 41 52 22 31 40 34 33 6 -10 -39 11 -30 32 13 21 43
71 97 91 97 5 0 10 4 10 9 0 12 79 43 91 35 18 -10 6 -184 -17 -249 -3 -11 12
0 35 25 22 25 46 61 52 80 6 19 13 42 16 50 3 8 7 22 9 31 2 9 9 29 15 45 7
16 13 32 13 36 2 18 129 138 145 138 7 0 6 -14 -3 -37 -8 -21 -17 -56 -20 -78
-5 -37 -4 -38 9 -21 13 17 15 18 15 3 0 -29 15 -19 16 11 2 38 28 76 68 100
37 22 76 14 76 -15 0 -21 -23 -89 -33 -99 -10 -11 -8 -24 3 -24 6 0 19 15 30
33 13 20 20 26 20 15 0 -9 -4 -19 -8 -22 -11 -6 -14 -72 -7 -118 8 -46 21 -42
23 7 1 19 6 44 12 55 6 11 8 20 6 20 -3 0 6 16 19 36 14 20 26 43 26 50 1 8 3
19 4 24 1 6 3 16 4 23 1 19 44 67 59 67 7 0 12 4 12 8 0 8 91 62 104 62 3 0 6
-7 6 -15 0 -20 -3 -20 87 22 43 20 90 42 104 49 23 10 34 9 78 -11 28 -13 58
-23 68 -23 63 3 253 -59 410 -134 80 -37 83 -40 97 -86 14 -43 19 -43 19 1 0
35 32 15 119 -74 48 -50 88 -86 88 -81 0 18 -23 62 -32 62 -4 0 -8 6 -8 13 0
26 -131 147 -235 217 -59 39 -124 89 -145 112 -32 32 -48 40 -83 43 -24 2
-101 25 -173 51 -107 39 -142 47 -209 49 -44 1 -93 -3 -110 -8z m-1689 -546
c-4 -6 -11 -11 -15 -11 -11 0 -21 37 -13 45 9 9 35 -22 28 -34z m92 -210 c3
-8 -1 -12 -9 -9 -7 2 -15 10 -17 17 -3 8 1 12 9 9 7 -2 15 -10 17 -17z m380
-227 c0 -24 2 -47 5 -51 4 -3 7 6 7 22 0 47 11 21 15 -35 2 -28 6 -54 9 -58 5
-5 11 59 7 81 0 4 4 7 10 7 6 0 9 -9 6 -20 -6 -21 9 -28 16 -7 2 6 3 2 1 -10
-2 -11 -7 -28 -10 -37 -4 -12 0 -16 15 -16 17 0 21 -6 21 -33 0 -19 3 -37 8
-41 10 -10 10 -86 0 -86 -4 0 -5 -7 -2 -15 3 -8 11 -13 17 -12 12 2 17 -46 20
-193 1 -51 -3 -75 -22 -110 -13 -25 -28 -55 -35 -67 -17 -36 -23 -27 -20 30 2
39 -3 63 -21 97 -56 107 -57 110 -42 133 10 16 12 29 5 47 -5 14 -7 36 -4 50
4 14 8 44 11 68 4 33 2 42 -10 42 -21 0 -34 38 -29 87 3 32 -1 46 -19 65 -13
14 -24 33 -24 42 0 15 2 15 19 -1 17 -15 18 -15 19 0 1 10 3 22 4 27 1 6 3 19
4 31 2 41 21 6 19 -37z m-348 -17 c7 -32 4 -40 -26 -74 -21 -22 -33 -45 -30
-55 2 -10 0 -21 -5 -24 -6 -3 -3 -17 7 -32 12 -18 13 -27 6 -30 -7 -2 -12 -7
-12 -12 0 -5 -5 -21 -12 -37 -6 -15 -12 -30 -12 -33 -1 -3 -6 -12 -11 -20 -5
-8 -10 -27 -11 -41 -1 -15 -9 -40 -18 -56 -13 -26 -13 -37 -1 -82 7 -28 11
-51 8 -51 -3 0 0 -7 7 -15 10 -12 16 -13 26 -4 8 6 14 17 14 25 0 7 4 15 10
19 16 10 3 -65 -15 -85 -9 -10 -14 -24 -9 -31 10 -17 14 -59 4 -59 -17 0 -28
27 -25 63 2 31 -2 43 -22 60 -24 21 -24 25 -21 135 1 63 6 116 11 119 4 3 5
17 2 33 -4 18 -1 33 9 43 9 9 16 25 16 38 0 16 3 19 13 11 9 -8 12 -2 10 26
-3 50 7 103 18 96 5 -3 9 1 10 8 0 12 3 22 12 61 17 67 32 68 47 4z m-125
-677 c15 -29 11 -37 -11 -22 -14 9 -24 38 -17 46 10 9 12 8 28 -24z m591 -43
c1 -9 -4 -21 -12 -28 -12 -9 -14 -6 -14 21 0 33 21 39 26 7z m-215 -274 c9
-23 12 -154 6 -257 -2 -22 -42 -51 -58 -40 -11 6 -10 40 5 167 1 10 12 24 24
33 25 18 21 34 -10 34 -18 0 -20 4 -14 32 6 28 22 58 32 58 3 0 9 -12 15 -27z
m-161 -100 l21 -28 -23 -8 c-13 -5 -31 -13 -41 -18 -20 -11 -30 4 -24 36 7 51
35 58 67 18z"/>
<path d="M601 3508 c-114 -22 -141 -34 -221 -95 -69 -53 -200 -183 -250 -248
-13 -18 -13 -19 0 -9 56 40 145 115 214 180 110 103 206 144 422 178 21 4 40
9 42 11 10 10 -123 -1 -207 -17z"/>
<path d="M1950 3030 c0 -5 5 -10 11 -10 5 0 7 5 4 10 -3 6 -8 10 -11 10 -2 0
-4 -4 -4 -10z"/>
<path d="M3416 2844 c-147 -29 -274 -116 -325 -224 -22 -46 -26 -68 -25 -135
3 -207 123 -301 474 -370 108 -22 155 -41 180 -73 26 -32 26 -82 0 -110 -42
-45 -79 -56 -195 -56 -150 -1 -257 32 -391 120 -80 53 -79 54 -79 -106 l0
-140 54 -21 c164 -61 393 -84 556 -55 226 40 367 168 382 346 11 131 -46 235
-165 298 -60 32 -178 67 -326 97 -110 23 -154 42 -171 76 -20 38 -19 62 6 93
31 39 84 57 180 62 122 5 249 -32 359 -106 49 -33 66 -37 72 -17 7 21 3 241
-5 254 -4 7 -36 21 -70 32 -157 48 -368 62 -511 35z"/>
<path d="M986 2763 c27 -32 51 -60 54 -63 3 -3 52 -60 107 -126 56 -67 108
-128 115 -135 13 -15 93 -111 116 -141 11 -14 -1 -35 -93 -155 -177 -231 -339
-443 -354 -464 -13 -19 -10 -19 170 -19 l184 1 150 201 c83 111 161 214 174
230 l23 29 34 -38 33 -38 1 -192 0 -193 150 0 150 0 1 28 c0 34 0 1079 0 1110
-1 22 -2 22 -151 22 l-150 0 0 -261 0 -261 -82 103 c-46 57 -139 175 -207 262
l-124 157 -175 0 -174 0 48 -57z"/>
<path d="M2470 1399 c0 -5 5 -7 10 -4 6 3 10 8 10 11 0 2 -4 4 -10 4 -5 0 -10
-5 -10 -11z"/>
<path d="M2380 1359 c0 -21 37 -59 59 -59 22 0 56 46 41 55 -6 3 -10 0 -10 -8
0 -21 -25 -38 -44 -31 -9 4 -23 18 -31 33 -9 16 -14 20 -15 10z"/>
</g>
</svg>
